<?xml version="1.0" encoding="utf-8"?>
<!-- Generator: Adobe Illustrator 17.0.0, SVG Export Plug-In . SVG Version: 6.00 Build 0)  -->
<!DOCTYPE svg PUBLIC "-//W3C//DTD SVG 1.1//EN" "http://www.w3.org/Graphics/SVG/1.1/DTD/svg11.dtd">
<svg version="1.1" id="Layer_1" xmlns="http://www.w3.org/2000/svg" xmlns:xlink="http://www.w3.org/1999/xlink" x="0px" y="0px"
	 width="500px" height="140px" viewBox="0 0 500 140" enable-background="new 0 0 500 140" xml:space="preserve">
<g>
	<path fill="#443F41" d="M73.29,25.823c2.18-2.562,4.592-4.551,7.237-5.969c2.644-1.417,5.328-2.331,8.054-2.739
		c2.726-0.409,5.41-0.381,8.055,0.082c2.644,0.464,5.083,1.268,7.318,2.413c2.889,1.527,4.974,3.34,6.255,5.438
		c1.28,2.099,1.867,4.185,1.758,6.255c-0.11,2.073-0.873,3.966-2.29,5.683c-1.418,1.717-3.353,2.985-5.806,3.803
		c-4.089,1.308-8.259,1.594-12.511,0.858s-8.451-1.921-12.593-3.557c0.109,1.418,0.136,3.066,0.082,4.947
		c-0.055,1.881-0.219,4.048-0.491,6.501c3.271-0.109,5.969,0.069,8.095,0.531c2.126,0.464,3.406,0.995,3.843,1.595
		c0.327,0.49,0.491,1.254,0.491,2.29c0,1.036-0.096,2.208-0.286,3.516c-0.192,1.308-0.478,2.698-0.859,4.17
		c-0.382,1.472-0.805,2.835-1.267,4.088c-0.464,1.255-0.969,2.358-1.513,3.312c-0.545,0.955-1.063,1.568-1.553,1.84
		c-0.764,0.437-1.609,0.846-2.535,1.227c-0.928,0.382-1.786,0.668-2.576,0.858c-0.791,0.191-1.418,0.245-1.881,0.164
		c-0.464-0.082-0.613-0.368-0.45-0.859c0.599-0.599,1.198-1.472,1.799-2.617c0.6-1.145,1.158-2.412,1.676-3.802
		c0.518-1.39,0.94-2.807,1.268-4.252c0.327-1.444,0.503-2.78,0.532-4.007c0.027-1.227-0.123-2.249-0.45-3.066
		c-0.327-0.818-0.9-1.28-1.717-1.39c-0.546-0.054-1.063-0.095-1.554-0.123c-0.491-0.027-1.009-0.041-1.554-0.041
		c-0.491,3.107-1.173,6.474-2.044,10.099c-0.873,3.626-1.962,7.51-3.271,11.652c-1.746,5.397-3.884,10.372-6.419,14.924
		c-2.535,4.551-5.315,8.353-8.341,11.406c-3.025,3.053-6.215,5.22-9.567,6.501c-3.353,1.28-6.746,1.35-10.18,0.204
		c-2.29-0.764-4.211-2.044-5.765-3.843s-2.671-3.953-3.353-6.46c-0.682-2.508-0.928-5.26-0.736-8.259
		c0.19-2.997,0.899-6.051,2.126-9.158s2.971-6.215,5.233-9.322c2.261-3.107,5.111-5.996,8.545-8.667
		c4.142-3.216,8.313-5.71,12.511-7.482c4.197-1.771,8.204-3.066,12.02-3.884c0.327-1.853,0.599-3.761,0.818-5.724
		c0.217-1.962,0.381-3.747,0.491-5.356c0.108-1.607,0.176-2.957,0.204-4.047c0.027-1.09,0.041-1.689,0.041-1.799
		c0-0.053-0.151-0.176-0.45-0.368c-0.3-0.19-0.654-0.381-1.063-0.572c-0.409-0.19-0.832-0.395-1.268-0.613
		c-0.437-0.217-0.791-0.409-1.063-0.573c-2.453-1.145-5.221-2.384-8.3-3.72c-3.08-1.335-6.296-2.603-9.649-3.803
		c-3.353-1.198-6.76-2.249-10.221-3.148c-3.462-0.899-6.787-1.513-9.976-1.84s-6.161-0.313-8.913,0.041
		c-2.753,0.355-5.111,1.213-7.073,2.576c-3.217,2.236-4.934,5.343-5.151,9.322c-0.11,2.236,0.436,4.225,1.635,5.969
		c1.198,1.745,2.685,3.217,4.457,4.416c1.771,1.2,3.651,2.113,5.642,2.739c1.989,0.627,3.721,0.94,5.192,0.94
		c1.309,0,2.548-0.149,3.721-0.45c1.172-0.299,2.208-0.749,3.107-1.349c0.899-0.599,1.635-1.362,2.208-2.29
		c0.573-0.926,0.859-2.044,0.859-3.353c0.054-0.872-0.096-1.785-0.45-2.739c-0.355-0.953-0.654-1.812-0.899-2.576
		c-0.246-0.763-0.3-1.431-0.164-2.003c0.135-0.573,0.722-0.94,1.758-1.104c1.145-0.217,2.235,0.014,3.271,0.695
		c1.035,0.683,1.881,1.649,2.535,2.903c0.654,1.255,1.063,2.699,1.227,4.334s-0.055,3.271-0.654,4.906
		c-0.601,1.635-1.664,3.176-3.189,4.62c-1.526,1.445-3.626,2.631-6.296,3.557c-3.107,1.036-6.092,1.472-8.954,1.308
		s-5.507-0.763-7.932-1.799c-2.426-1.035-4.566-2.398-6.419-4.088c-1.854-1.689-3.271-3.57-4.252-5.643
		c-1.254-2.453-1.799-4.947-1.635-7.482c0.164-2.535,0.844-5.029,2.044-7.482c0.6-1.253,1.309-2.425,2.126-3.516
		c0.817-1.09,1.771-2.126,2.862-3.107c2.453-2.18,5.26-3.748,8.422-4.702c3.161-0.953,6.528-1.431,10.099-1.431
		c3.57,0,7.291,0.396,11.162,1.186c3.87,0.791,7.781,1.827,11.734,3.107c3.952,1.282,7.877,2.727,11.775,4.334
		C65.943,22.566,69.692,24.188,73.29,25.823z M32.813,89.85c0.217,2.727,0.871,4.811,1.962,6.255
		c1.09,1.444,2.425,2.331,4.007,2.658c1.581,0.327,3.324,0.149,5.233-0.531c1.907-0.683,3.829-1.759,5.765-3.23
		c1.935-1.472,3.802-3.298,5.602-5.479c1.799-2.18,3.353-4.606,4.661-7.277c2.617-5.561,4.539-10.671,5.765-15.333
		c1.227-4.661,2.057-8.926,2.494-12.797c-4.853,1.145-9.473,3.025-13.86,5.642c-4.389,2.617-8.232,5.601-11.53,8.954
		c-3.299,3.353-5.875,6.883-7.728,10.589C33.331,83.009,32.54,86.525,32.813,89.85z M104.281,34.409
		c1.362-1.035,1.948-2.139,1.758-3.312c-0.191-1.172-0.887-2.249-2.085-3.23c-1.2-0.981-2.794-1.812-4.784-2.494
		c-1.991-0.681-4.076-1.035-6.255-1.063c-2.181-0.027-4.348,0.341-6.501,1.104c-2.154,0.764-3.994,2.044-5.52,3.843
		c1.689,0.873,3.57,1.854,5.643,2.944c2.071,1.091,4.17,1.99,6.296,2.698c2.126,0.709,4.183,1.104,6.174,1.186
		C100.996,36.167,102.754,35.608,104.281,34.409z"/>
	<path fill="#443F41" d="M125.46,71.533c0.491,0.654,0.899,1.199,1.227,1.635c0.327,0.438,0.599,0.791,0.817,1.063
		c0.217,0.273,0.409,0.49,0.573,0.654c-2.89,3.435-5.697,6.487-8.422,9.158c-1.145,1.145-2.359,2.263-3.639,3.353
		c-1.281,1.091-2.535,2.059-3.761,2.902c-1.227,0.847-2.412,1.513-3.557,2.004c-1.145,0.49-2.208,0.735-3.189,0.735h-0.082
		c-0.981,0.054-1.921-0.04-2.821-0.286c-0.899-0.245-1.664-0.653-2.29-1.227c-0.627-0.572-1.063-1.308-1.309-2.207
		c-0.245-0.899-0.204-2.004,0.123-3.313c0.381-1.525,1.104-3.446,2.167-5.765c1.063-2.316,2.208-4.701,3.435-7.154
		c1.227-2.454,2.398-4.784,3.516-6.992c1.117-2.208,1.894-3.966,2.331-5.274c-1.746,2.126-3.708,4.43-5.888,6.91
		c-2.181,2.481-4.225,4.812-6.133,6.991c-2.236,2.563-4.498,5.07-6.787,7.523c-0.437-0.491-0.817-0.953-1.145-1.391
		c-0.273-0.38-0.572-0.748-0.899-1.104c-0.327-0.354-0.573-0.64-0.736-0.858c0.654-0.871,1.662-2.112,3.025-3.721
		c1.362-1.607,2.848-3.353,4.457-5.233c1.607-1.881,3.23-3.762,4.865-5.643c1.635-1.88,3.052-3.529,4.252-4.947
		c-0.709-0.217-1.308-0.463-1.799-0.736c-0.764-0.49-1.404-1.227-1.921-2.208c-0.519-0.981-0.777-2.262-0.777-3.843
		c0.164-1.908,0.667-3.543,1.513-4.906c0.844-1.362,1.826-2.384,2.944-3.066c1.117-0.681,2.22-1.022,3.312-1.022
		c1.09,0,1.935,0.382,2.535,1.145c0.6,0.818,0.9,1.664,0.9,2.535c0,0.873-0.137,1.69-0.409,2.453
		c-0.327,0.873-0.791,1.746-1.39,2.617c0.491,1.037,1.268,1.746,2.331,2.126c1.063,0.382,2.126,0.805,3.189,1.267
		c1.063,0.464,1.935,1.145,2.617,2.044c0.681,0.899,0.886,2.331,0.613,4.293c-0.164,1.363-0.613,2.835-1.349,4.416
		c-0.736,1.582-1.554,3.203-2.453,4.865c-0.899,1.664-1.854,3.285-2.862,4.866c-1.009,1.581-1.881,3.025-2.617,4.333
		c-0.736,1.309-1.282,2.427-1.636,3.353c-0.355,0.928-0.341,1.527,0.041,1.799c0.272,0.219,0.626,0.246,1.063,0.082l2.617-1.635
		c0.818-0.654,1.853-1.514,3.107-2.576c1.253-1.063,2.535-2.193,3.843-3.394c1.308-1.198,2.548-2.398,3.721-3.598
		C123.892,73.36,124.806,72.351,125.46,71.533z"/>
	<path fill="#443F41" d="M142.141,71.696c0.491,0.654,0.899,1.2,1.227,1.636c0.327,0.437,0.599,0.791,0.818,1.063
		c0.217,0.273,0.409,0.491,0.572,0.654c-2.89,3.435-5.697,6.488-8.422,9.158c-1.2,1.146-2.426,2.263-3.68,3.353
		c-1.255,1.092-2.508,2.059-3.762,2.903c-1.254,0.846-2.453,1.513-3.598,2.003c-1.145,0.491-2.208,0.736-3.189,0.736
		c-0.11,0-0.327-0.055-0.654-0.164c-1.2-0.38-1.977-1.008-2.331-1.88c-0.355-0.872-0.503-1.785-0.45-2.739
		c0.054-0.953,0.231-1.867,0.532-2.74c0.299-0.871,0.503-1.525,0.613-1.962c0.053-0.218,0.231-0.681,0.531-1.391
		c0.299-0.707,0.667-1.565,1.104-2.575c0.436-1.008,0.926-2.139,1.472-3.394c0.544-1.253,1.09-2.507,1.636-3.762
		c1.308-2.997,2.725-6.296,4.252-9.894c0.436-1.309,0.899-2.507,1.39-3.598c0.381-0.926,0.79-1.799,1.227-2.617
		c0.436-0.817,0.79-1.28,1.063-1.39c0.708-0.272,1.513-0.38,2.412-0.327c0.899,0.055,1.676,0.327,2.331,0.818
		s1.104,1.227,1.349,2.208c0.246,0.981,0.095,2.29-0.45,3.925c-0.491,1.418-1.308,3.23-2.453,5.438
		c-1.145,2.208-2.318,4.457-3.516,6.746c-1.2,2.29-2.277,4.457-3.23,6.501c-0.955,2.044-1.486,3.611-1.595,4.701
		c0.054,0.11,0.395-0.054,1.022-0.49c0.626-0.436,1.39-1.035,2.29-1.799c0.899-0.763,1.894-1.636,2.984-2.616
		c1.09-0.981,2.167-1.99,3.23-3.026c1.063-1.034,2.057-2.03,2.985-2.984C140.778,73.237,141.541,72.405,142.141,71.696z
		 M137.889,49.863c-1.036-0.599-1.664-1.525-1.881-2.78c-0.218-1.253,0.027-2.425,0.736-3.517c0.708-1.145,1.662-1.88,2.862-2.208
		c1.198-0.327,2.316-0.19,3.353,0.409c1.035,0.654,1.662,1.609,1.88,2.862c0.217,1.254-0.028,2.426-0.736,3.516
		c-0.709,1.091-1.664,1.813-2.862,2.167C140.042,50.668,138.924,50.518,137.889,49.863z"/>
	<path fill="#443F41" d="M145.902,82.735c0.327,1.418,1.294,2.317,2.903,2.698c1.607,0.382,3.502,0.286,5.683-0.286
		c2.18-0.572,4.51-1.58,6.991-3.025c2.48-1.443,4.756-3.312,6.828-5.601c0.708,1.091,1.335,1.936,1.881,2.534
		c0.327,0.382,0.654,0.736,0.981,1.063c-2.344,2.727-4.853,5.098-7.523,7.113c-1.145,0.873-2.385,1.705-3.72,2.494
		c-1.337,0.791-2.74,1.472-4.211,2.045c-1.472,0.572-2.999,0.98-4.579,1.227c-1.582,0.245-3.189,0.258-4.825,0.04
		c-2.29-0.326-4.117-1.049-5.479-2.166c-1.363-1.117-2.345-2.521-2.944-4.212c-0.601-1.688-0.871-3.569-0.817-5.642
		c0.055-2.071,0.354-4.171,0.899-6.297c0.38-1.417,1.022-2.997,1.921-4.743c0.899-1.744,1.989-3.502,3.271-5.274
		c1.28-1.771,2.711-3.476,4.293-5.111c1.581-1.635,3.23-3.025,4.947-4.17c1.717-1.145,3.488-1.989,5.315-2.535
		c1.826-0.544,3.611-0.6,5.356-0.164c0.491,0.164,1.022,0.572,1.595,1.227c0.572,0.654,1.063,1.472,1.472,2.453
		c0.409,0.981,0.64,2.113,0.695,3.394c0.054,1.281-0.177,2.657-0.695,4.129c-0.519,1.472-1.404,3.025-2.658,4.661
		c-1.254,1.636-3.025,3.271-5.315,4.906c-0.873,0.491-1.813,0.94-2.821,1.35c-1.009,0.409-2.031,0.764-3.066,1.063
		c-1.036,0.3-2.017,0.519-2.943,0.653c-0.928,0.137-1.746,0.178-2.453,0.123l0.817-3.025c1.581,0,3.134-0.299,4.661-0.899
		c1.308-0.545,2.684-1.417,4.129-2.617c1.444-1.198,2.739-2.944,3.884-5.233c0.763-1.581,1.117-3.066,1.063-4.457
		c-0.055-1.39-0.382-2.384-0.981-2.984c-3.107,2.236-5.779,4.689-8.014,7.359c-0.981,1.145-1.921,2.399-2.821,3.761
		c-0.899,1.363-1.664,2.795-2.29,4.293c-0.627,1.5-1.091,3.081-1.39,4.743C145.643,79.288,145.629,80.991,145.902,82.735z"/>
	<path fill="#443F41" d="M202.242,71.288c0.491,0.653,0.899,1.199,1.227,1.635c0.327,0.438,0.599,0.791,0.818,1.063
		c0.217,0.273,0.409,0.49,0.572,0.654c-2.89,3.434-5.697,6.487-8.422,9.158c-1.2,1.145-2.426,2.263-3.68,3.353
		c-1.255,1.091-2.508,2.058-3.762,2.902c-1.254,0.846-2.453,1.513-3.598,2.004c-1.145,0.49-2.208,0.735-3.189,0.735
		c-0.327,0-0.709-0.041-1.145-0.122c-0.437-0.082-0.846-0.299-1.227-0.654c-0.382-0.354-0.668-0.899-0.858-1.636
		c-0.192-0.735-0.205-1.729-0.041-2.984c0.054-0.436,0.245-1.049,0.572-1.84c0.327-0.79,0.544-1.376,0.654-1.758
		c0.217-0.6,0.532-1.362,0.94-2.29c0.409-0.926,0.858-1.935,1.349-3.025c0.491-1.09,1.008-2.249,1.554-3.476
		c0.544-1.227,1.09-2.438,1.635-3.639c1.253-2.78,2.617-5.724,4.089-8.831L175.83,77.094c-0.437,0.872-0.873,1.745-1.308,2.616
		c-0.437,0.873-0.832,1.676-1.186,2.412c-0.355,0.736-0.683,1.363-0.981,1.881c-0.3,0.519-0.505,0.887-0.613,1.104l-0.572,1.227
		c-0.382,0.873-0.683,1.636-0.899,2.29c-0.219,0.654-0.355,1.199-0.409,1.636c-0.11,0.764-0.259,1.336-0.45,1.717
		c-0.191,0.382-0.368,0.654-0.531,0.817c-0.219,0.218-0.437,0.299-0.654,0.245c-1.363-0.109-2.331-0.572-2.903-1.39
		s-0.914-1.717-1.022-2.698c-0.108-1.145,0.123-2.711,0.695-4.702c0.572-1.989,1.308-4.115,2.208-6.378
		c0.899-2.262,1.866-4.51,2.903-6.746c1.035-2.235,1.962-4.224,2.78-5.969v0.082c0.109-0.327,0.231-0.64,0.368-0.94
		c0.135-0.299,0.258-0.585,0.368-0.858c1.145-2.453,2.126-4.469,2.944-6.051c0.817-1.58,1.335-2.588,1.553-3.025
		c0.381-0.763,0.831-1.349,1.35-1.758c0.517-0.409,1.239-0.287,2.167,0.368c0.544,0.327,1.049,0.736,1.513,1.227
		c0.462,0.491,0.83,1.022,1.104,1.595c0.272,0.572,0.436,1.159,0.491,1.758c0.054,0.601-0.055,1.173-0.327,1.717
		c-0.164,0.327-0.368,0.777-0.613,1.349c-0.245,0.573-0.531,1.2-0.858,1.881c-0.327,0.682-0.668,1.404-1.022,2.167
		c-0.355,0.764-0.695,1.472-1.022,2.126c1.309-1.253,2.644-2.603,4.007-4.048c1.362-1.443,2.629-2.807,3.802-4.088
		c1.172-1.28,2.194-2.371,3.066-3.271c0.872-0.899,1.472-1.431,1.799-1.594c0.708-0.327,1.499-0.462,2.371-0.409
		c0.872,0.055,1.648,0.327,2.331,0.818c0.681,0.491,1.145,1.241,1.39,2.249c0.245,1.01,0.095,2.331-0.45,3.966
		c-0.437,1.254-1.186,2.972-2.249,5.151c-1.063,2.181-2.208,4.457-3.434,6.828c-1.227,2.371-2.399,4.675-3.516,6.909
		c-1.118,2.236-1.922,4.035-2.412,5.397c0.38-0.109,1.198-0.682,2.453-1.718c1.253-1.034,2.643-2.248,4.17-3.639
		c1.526-1.39,3.039-2.834,4.539-4.334C200.265,73.51,201.424,72.269,202.242,71.288z"/>
	<path fill="#443F41" d="M248.523,18.627c1.089,0.709,1.975,1.664,2.658,2.862c0.68,1.2,0.748,2.345,0.203,3.435l-5.233,11.039
		c-0.11,0.218-0.341,0.682-0.695,1.39c-0.355,0.709-0.791,1.568-1.309,2.576c-0.519,1.009-1.063,2.099-1.635,3.271
		c-0.572,1.173-1.118,2.277-1.635,3.312c-0.519,1.036-0.981,1.936-1.39,2.699c-0.409,0.764-0.695,1.281-0.859,1.554
		c-1.418,2.835-2.576,5.151-3.475,6.95c-0.899,1.799-1.664,3.353-2.29,4.661c-0.627,1.308-1.173,2.481-1.635,3.516
		c-0.464,1.036-0.996,2.181-1.595,3.435c-0.601,1.254-1.309,2.78-2.126,4.579c-0.818,1.799-1.881,4.089-3.189,6.869
		c-0.055,0.109-0.11,0.245-0.164,0.408c-0.055,0.164-0.11,0.301-0.164,0.409c-0.219,0.709-0.355,1.363-0.409,1.962
		c-0.055,0.601-0.11,1.118-0.164,1.554c0.054,0.11,0.381-0.054,0.981-0.49c0.599-0.436,1.349-1.022,2.249-1.758
		c0.899-0.736,1.908-1.607,3.026-2.617c1.117-1.008,2.22-2.016,3.312-3.025c1.09-1.008,2.098-2.003,3.025-2.984
		c0.926-0.981,1.689-1.826,2.29-2.535c0.491,0.654,0.9,1.2,1.227,1.636c0.327,0.437,0.6,0.791,0.818,1.063
		c0.217,0.273,0.409,0.491,0.572,0.654c-2.89,3.435-5.697,6.488-8.422,9.158c-1.145,1.146-2.358,2.263-3.639,3.353
		c-1.282,1.092-2.535,2.059-3.762,2.903c-1.227,0.846-2.412,1.513-3.557,2.003c-1.145,0.491-2.208,0.736-3.189,0.736
		c-0.218,0-0.382-0.028-0.49-0.082c-1.472-0.436-2.413-1.402-2.821-2.902c-0.409-1.499-0.314-3.394,0.286-5.684
		c0.217-0.763,0.544-1.688,0.981-2.78c-0.818,1.036-1.772,2.154-2.862,3.353c-1.091,1.2-2.195,2.359-3.312,3.476
		c-1.118,1.118-2.208,2.085-3.271,2.903c-1.063,0.817-2.003,1.336-2.821,1.553c-1.255,0.327-2.413,0.136-3.476-0.572
		c-1.063-0.707-1.921-1.717-2.576-3.025s-1.063-2.861-1.227-4.661c-0.164-1.799,0-3.651,0.491-5.56s1.171-4.061,2.044-6.46
		c0.871-2.398,1.921-4.797,3.148-7.196c1.227-2.398,2.617-4.647,4.17-6.746c1.554-2.098,3.257-3.802,5.111-5.111
		c1.853-1.308,3.747-1.934,5.683-1.88c1.934,0.055,3.692,0.382,5.274,0.981c1.799,0.709,3.57,1.717,5.315,3.025h0.245
		c2.126-4.416,4.142-8.667,6.051-12.756c1.907-4.089,3.625-7.754,5.151-10.999c1.525-3.243,2.78-5.928,3.761-8.054
		c0.981-2.126,1.607-3.461,1.881-4.007c0.381-0.763,0.818-1.349,1.309-1.758C246.888,17.85,247.596,17.973,248.523,18.627z
		 M223.829,64.991c0.327-0.654,0.654-1.309,0.981-1.962c0.327-0.654,0.626-1.309,0.899-1.963l-0.163,0.082
		c-1.091-1.635-2.236-2.576-3.435-2.821c-1.2-0.245-2.372-0.123-3.516,0.368c-1.145,0.491-2.195,1.214-3.148,2.167
		c-0.954,0.954-1.731,1.84-2.33,2.657c-0.981,1.309-1.909,2.78-2.78,4.416c-0.873,1.635-1.636,3.271-2.29,4.907
		c-0.654,1.635-1.214,3.243-1.676,4.824c-0.464,1.582-0.791,2.998-0.981,4.252c-0.192,1.255-0.245,2.263-0.164,3.025
		c0.082,0.764,0.313,1.173,0.695,1.227c0.272,0.055,0.749-0.123,1.431-0.531c0.681-0.409,1.444-0.927,2.29-1.554
		c0.845-0.626,1.744-1.321,2.699-2.086c0.953-0.763,1.853-1.484,2.698-2.166c0.845-0.682,1.554-1.28,2.126-1.799
		c0.572-0.518,0.94-0.831,1.104-0.94c1.035-2.453,2.071-4.743,3.107-6.869C222.41,68.099,223.228,66.354,223.829,64.991z"/>
	<path fill="#443F41" d="M276.652,73.332c-2.4,2.563-4.824,4.935-7.277,7.114c-2.072,1.908-4.322,3.789-6.746,5.642
		c-2.428,1.854-4.676,3.218-6.746,4.089c-2.727,1.363-5.534,2.235-8.423,2.616c-2.126,0.218-4.035,0.028-5.724-0.572
		c-1.69-0.599-3.107-1.499-4.252-2.698c-1.145-1.198-2.018-2.617-2.617-4.252c-0.601-1.636-0.846-3.38-0.736-5.233
		c0-0.981,0.231-2.18,0.695-3.598c0.463-1.417,1.063-2.821,1.799-4.211c0.736-1.391,1.54-2.671,2.412-3.844
		c0.871-1.172,1.689-2.003,2.453-2.494c0.381-0.272,0.777-0.368,1.186-0.286c0.409,0.082,0.912,0.423,1.513,1.022
		c0.491,0.491,0.94,1.036,1.349,1.635c0.409,0.601,0.708,1.227,0.9,1.881c0.19,0.654,0.258,1.296,0.204,1.922
		c-0.055,0.627-0.3,1.214-0.736,1.758c-0.491,0.709-0.995,1.595-1.513,2.658c-0.519,1.063-0.955,2.167-1.309,3.312
		c-0.355,1.145-0.586,2.248-0.695,3.312c-0.11,1.063,0,1.922,0.327,2.575c0.327,0.654,0.722,1.159,1.186,1.514
		c0.462,0.354,0.94,0.586,1.431,0.694c0.491,0.11,0.926,0.151,1.308,0.123c0.381-0.027,0.654-0.041,0.818-0.041
		c2.235-0.272,3.87-1.268,4.905-2.984c1.035-1.718,1.623-3.721,1.76-6.01c0.135-2.29-0.111-4.62-0.736-6.992
		c-0.627-2.371-1.459-4.32-2.495-5.847c-0.764-1.635-1.308-3.271-1.635-4.906c-0.327-1.417-0.478-2.943-0.45-4.579
		c0.027-1.635,0.477-3.161,1.35-4.579c0.707-1.253,1.498-2.139,2.371-2.658c0.871-0.517,1.908-0.885,3.107-1.104
		c0.49-0.217,1.145-0.299,1.963-0.246c0.818,0.055,1.717,0.164,2.699,0.327c0.652,0.218,1.334,0.519,2.043,0.899
		c0.709,0.382,1.322,0.818,1.84,1.309c0.518,0.49,0.926,1.022,1.227,1.594c0.299,0.572,0.369,1.132,0.205,1.676
		c-0.219,0.654-0.627,0.887-1.227,0.695c-0.602-0.19-1.227-0.45-1.881-0.777s-1.268-0.544-1.84-0.654
		c-0.572-0.108-0.941,0.192-1.104,0.899c-0.273,1.746-0.383,3.23-0.328,4.457s0.217,2.385,0.49,3.476
		c0.273,1.091,0.641,2.236,1.105,3.434c0.461,1.2,0.967,2.617,1.512,4.252c0.273,0.981,0.49,1.813,0.654,2.495
		s0.313,1.349,0.449,2.003s0.232,1.391,0.287,2.208c0.053,0.817,0.082,1.827,0.082,3.025c0.926-0.763,1.893-1.566,2.902-2.412
		c1.008-0.845,1.975-1.689,2.902-2.535c0.928-0.844,1.771-1.647,2.535-2.412c0.764-0.763,1.391-1.444,1.881-2.044
		c0.49,0.654,0.9,1.2,1.227,1.636c0.328,0.437,0.6,0.79,0.818,1.063C276.297,72.951,276.488,73.168,276.652,73.332z"/>
	<path fill="#443F41" d="M365.291,31.956c-1.09,2.29-2.727,4.784-4.906,7.482c-2.18,2.699-4.73,5.425-7.645,8.177
		c-2.918,2.753-6.092,5.452-9.527,8.095c-3.434,2.645-6.91,5.002-10.426,7.073c-3.516,2.072-6.965,3.775-10.344,5.111
		c-3.381,1.336-6.488,2.085-9.322,2.249c1.963,3.271,3.885,6.638,5.766,10.099c1.881,3.463,3.844,6.883,5.887,10.263
		c2.045,3.379,4.252,6.69,6.623,9.935c2.373,3.243,5.057,6.256,8.055,9.036c2.234,2.071,4.389,3.651,6.461,4.742
		c2.889,1.581,5.273,1.99,7.154,1.227s3.775-2.344,5.684-4.742c0.381-0.491,0.736-0.873,1.063-1.145
		c0.328-0.273,0.654-0.164,0.982,0.327c0.271,0.49,0.379,1.198,0.326,2.126c0,1.417-0.26,2.82-0.777,4.211
		c-0.518,1.39-1.227,2.657-2.125,3.803c-0.9,1.145-1.99,2.139-3.271,2.984c-1.281,0.845-2.658,1.402-4.129,1.676
		c-3.926,0.763-7.605,0.299-11.039-1.39c-3.436-1.69-6.623-4.144-9.568-7.359c-2.943-3.218-5.67-6.924-8.176-11.121
		c-2.508-4.198-4.771-8.437-6.787-12.715c-2.018-4.279-3.816-8.341-5.396-12.185c-1.582-3.843-2.918-6.991-4.008-9.444
		c-0.326-0.654-0.641-1.308-0.939-1.962c-0.301-0.654-0.643-1.309-1.023-1.962c-2.889,7.306-5.588,13.889-8.096,19.747
		c-2.508,5.861-4.496,11.189-5.969,15.986c0.055,0.763-0.027,1.35-0.244,1.759c-0.219,0.408-0.465,0.722-0.736,0.94
		c-0.383,0.326-0.764,0.531-1.145,0.613c-0.383,0.081-0.684,0.122-0.9,0.122h-0.164c-1.199,0-2.303-0.232-3.311-0.695
		c-1.01-0.464-1.758-1.24-2.25-2.33c-0.764-1.363-0.682-3.571,0.246-6.623c0.055-0.164,0.449-1.187,1.186-3.066
		c0.736-1.881,1.703-4.334,2.902-7.359c1.199-3.026,2.563-6.446,4.09-10.263c1.525-3.814,3.078-7.699,4.66-11.652
		c1.58-3.952,3.148-7.836,4.701-11.652c1.555-3.815,2.957-7.223,4.213-10.221c1.252-2.998,2.301-5.451,3.146-7.359
		c0.846-1.908,1.35-2.916,1.514-3.026c0.707-0.544,1.635-0.763,2.779-0.654c1.146,0.11,2.221,0.423,3.23,0.94
		c1.008,0.519,1.799,1.214,2.371,2.085c0.572,0.873,0.668,1.745,0.287,2.617c-0.109,0.273-0.273,0.682-0.49,1.227
		c-0.219,0.545-0.451,1.118-0.695,1.717c-0.246,0.6-0.465,1.145-0.654,1.635c-0.191,0.491-0.314,0.791-0.369,0.899
		c0,0.055-0.203,0.56-0.613,1.513c-0.408,0.955-0.953,2.249-1.635,3.884s-1.471,3.53-2.371,5.683
		c-0.9,2.154-1.867,4.484-2.902,6.991c0.436,0.654,0.885,1.309,1.35,1.963c0.461,0.654,0.912,1.336,1.348,2.044
		c3.162-0.926,6.447-2.18,9.854-3.761c3.406-1.581,6.76-3.366,10.059-5.356c3.297-1.99,6.459-4.116,9.484-6.378
		c3.027-2.261,5.738-4.551,8.137-6.869c2.398-2.316,4.416-4.565,6.051-6.746c1.637-2.18,2.699-4.17,3.189-5.969
		c0.49-1.908-0.205-3.42-2.084-4.539c-1.881-1.116-4.457-1.934-7.729-2.453c-3.271-0.517-7.031-0.776-11.285-0.776
		c-4.252,0-8.504,0.191-12.756,0.572c-4.252,0.382-8.287,0.914-12.102,1.594c-3.816,0.683-6.924,1.404-9.322,2.167
		c-2.018,0.654-4.279,1.527-6.787,2.617c-2.508,1.091-5.016,2.304-7.521,3.639c-2.51,1.337-4.895,2.753-7.156,4.252
		c-2.262,1.5-4.129,3.013-5.602,4.538c-0.436,0.437-0.994,0.682-1.676,0.736c-0.682,0.055-1.322-0.027-1.922-0.245
		c-0.6-0.217-1.131-0.544-1.594-0.981c-0.465-0.436-0.695-0.953-0.695-1.553c-0.109-2.617,0.436-4.919,1.635-6.91
		c1.199-1.99,2.807-3.884,4.824-5.683c2.563-2.235,5.818-4.143,9.771-5.724c3.953-1.581,8.205-2.862,12.758-3.843
		c4.551-0.981,9.158-1.744,13.818-2.29c4.662-0.544,8.994-0.926,13.002-1.145c4.006-0.217,7.453-0.313,10.344-0.286
		c2.889,0.028,4.797,0.096,5.725,0.205c5.014,0.491,9.375,1.336,13.082,2.535c3.707,1.2,6.666,2.631,8.873,4.293
		c2.207,1.664,3.639,3.544,4.293,5.643C366.682,27.391,366.436,29.612,365.291,31.956z"/>
	<path fill="#443F41" d="M358.012,82.735c0.328,1.418,1.295,2.317,2.904,2.698c1.607,0.382,3.502,0.286,5.682-0.286
		c2.182-0.572,4.512-1.58,6.992-3.025c2.48-1.443,4.756-3.312,6.828-5.601c0.707,1.091,1.336,1.936,1.881,2.534
		c0.326,0.382,0.654,0.736,0.98,1.063c-2.344,2.727-4.852,5.098-7.521,7.113c-1.146,0.873-2.387,1.705-3.721,2.494
		c-1.338,0.791-2.74,1.472-4.213,2.045c-1.471,0.572-2.998,0.98-4.578,1.227c-1.582,0.245-3.189,0.258-4.824,0.04
		c-2.289-0.326-4.117-1.049-5.479-2.166c-1.363-1.117-2.346-2.521-2.943-4.212c-0.602-1.688-0.873-3.569-0.818-5.642
		c0.055-2.071,0.354-4.171,0.898-6.297c0.381-1.417,1.023-2.997,1.922-4.743c0.9-1.744,1.99-3.502,3.271-5.274
		c1.279-1.771,2.711-3.476,4.293-5.111c1.58-1.635,3.23-3.025,4.947-4.17c1.717-1.145,3.488-1.989,5.314-2.535
		c1.826-0.544,3.611-0.6,5.357-0.164c0.49,0.164,1.021,0.572,1.594,1.227c0.572,0.654,1.063,1.472,1.473,2.453
		c0.408,0.981,0.639,2.113,0.693,3.394c0.055,1.281-0.178,2.657-0.693,4.129c-0.52,1.472-1.404,3.025-2.658,4.661
		c-1.256,1.636-3.025,3.271-5.316,4.906c-0.871,0.491-1.813,0.94-2.82,1.35c-1.01,0.409-2.031,0.764-3.066,1.063
		s-2.018,0.519-2.943,0.653c-0.928,0.137-1.746,0.178-2.453,0.123l0.818-3.025c1.58,0,3.133-0.299,4.66-0.899
		c1.309-0.545,2.684-1.417,4.129-2.617c1.443-1.198,2.74-2.944,3.885-5.233c0.762-1.581,1.117-3.066,1.063-4.457
		s-0.381-2.384-0.98-2.984c-3.107,2.236-5.779,4.689-8.014,7.359c-0.982,1.145-1.922,2.399-2.822,3.761
		c-0.898,1.363-1.662,2.795-2.289,4.293c-0.627,1.5-1.092,3.081-1.391,4.743C357.754,79.288,357.738,80.991,358.012,82.735z"/>
	<path fill="#443F41" d="M414.354,71.288c0.49,0.653,0.898,1.199,1.227,1.635c0.326,0.438,0.6,0.791,0.816,1.063
		c0.219,0.273,0.41,0.49,0.574,0.654c-2.891,3.434-5.697,6.487-8.424,9.158c-1.199,1.145-2.426,2.263-3.68,3.353
		c-1.254,1.091-2.508,2.058-3.762,2.902c-1.254,0.846-2.453,1.513-3.598,2.004c-1.145,0.49-2.207,0.735-3.189,0.735
		c-0.326,0-0.709-0.041-1.145-0.122c-0.436-0.082-0.846-0.299-1.227-0.654c-0.381-0.354-0.668-0.899-0.857-1.636
		c-0.191-0.735-0.205-1.729-0.041-2.984c0.053-0.436,0.244-1.049,0.572-1.84c0.326-0.79,0.545-1.376,0.654-1.758
		c0.217-0.6,0.531-1.362,0.939-2.29c0.41-0.926,0.859-1.935,1.35-3.025c0.49-1.09,1.008-2.249,1.553-3.476s1.092-2.438,1.637-3.639
		c1.254-2.78,2.617-5.724,4.088-8.831l-13.9,14.556c-0.438,0.872-0.873,1.745-1.309,2.616c-0.438,0.873-0.832,1.676-1.186,2.412
		c-0.355,0.736-0.682,1.363-0.982,1.881c-0.299,0.519-0.504,0.887-0.613,1.104l-0.572,1.227c-0.381,0.873-0.682,1.636-0.898,2.29
		c-0.219,0.654-0.355,1.199-0.408,1.636c-0.111,0.764-0.26,1.336-0.451,1.717c-0.191,0.382-0.367,0.654-0.531,0.817
		c-0.219,0.218-0.438,0.299-0.654,0.245c-1.363-0.109-2.33-0.572-2.902-1.39s-0.914-1.717-1.021-2.698
		c-0.109-1.145,0.121-2.711,0.693-4.702c0.574-1.989,1.309-4.115,2.209-6.378c0.898-2.262,1.867-4.51,2.902-6.746
		c1.035-2.235,1.963-4.224,2.781-5.969v0.082c0.107-0.327,0.23-0.64,0.367-0.94c0.135-0.299,0.258-0.585,0.367-0.858
		c1.146-2.453,2.127-4.469,2.945-6.051c0.816-1.58,1.334-2.588,1.553-3.025c0.381-0.763,0.83-1.349,1.35-1.758
		c0.518-0.409,1.238-0.287,2.166,0.368c0.545,0.327,1.049,0.736,1.514,1.227c0.463,0.491,0.83,1.022,1.104,1.595
		c0.271,0.572,0.436,1.159,0.49,1.758c0.055,0.601-0.055,1.173-0.326,1.717c-0.164,0.327-0.369,0.777-0.613,1.349
		c-0.246,0.573-0.531,1.2-0.859,1.881c-0.326,0.682-0.668,1.404-1.021,2.167c-0.355,0.764-0.695,1.472-1.021,2.126
		c1.307-1.253,2.643-2.603,4.006-4.048c1.361-1.443,2.629-2.807,3.803-4.088c1.172-1.28,2.193-2.371,3.066-3.271
		c0.871-0.899,1.471-1.431,1.799-1.594c0.707-0.327,1.498-0.462,2.371-0.409c0.871,0.055,1.648,0.327,2.33,0.818
		s1.145,1.241,1.391,2.249c0.246,1.01,0.094,2.331-0.449,3.966c-0.438,1.254-1.186,2.972-2.25,5.151
		c-1.063,2.181-2.207,4.457-3.434,6.828c-1.227,2.371-2.4,4.675-3.516,6.909c-1.119,2.236-1.922,4.035-2.412,5.397
		c0.381-0.109,1.197-0.682,2.453-1.718c1.252-1.034,2.643-2.248,4.17-3.639c1.525-1.39,3.037-2.834,4.537-4.334
		C412.377,73.51,413.535,72.269,414.354,71.288z"/>
	<path fill="#443F41" d="M448.941,35.063c0.6,0.164,0.857,0.641,0.775,1.431c-0.08,0.791-0.559,1.567-1.43,2.33
		c-0.873,0.764-2.182,1.404-3.926,1.922c-1.744,0.519-3.953,0.586-6.623,0.205l-1.227-0.246l-4.416,8.668
		c-1.418,2.835-2.576,5.166-3.475,6.991c-0.9,1.827-1.664,3.381-2.289,4.661c-0.629,1.281-1.186,2.44-1.678,3.475
		c-0.49,1.036-1.035,2.195-1.635,3.475c-0.6,1.282-1.309,2.809-2.127,4.579c-0.816,1.772-1.854,4.048-3.105,6.828
		c-0.438,1.2-0.766,1.99-0.982,2.371c-0.219,0.382-0.326,0.765-0.326,1.146c0,0.709,0.408,0.995,1.227,0.858
		c0.816-0.136,1.77-0.504,2.861-1.104c0.109-0.054,0.354-0.23,0.736-0.531c0.381-0.299,0.789-0.613,1.227-0.94
		c0.436-0.327,0.871-0.654,1.309-0.98c0.436-0.327,0.762-0.6,0.98-0.818c1.635-1.472,3.297-3.038,4.988-4.701
		c1.689-1.663,2.971-3.039,3.844-4.13c0.49,0.654,0.898,1.2,1.227,1.636c0.326,0.437,0.598,0.791,0.816,1.063
		c0.219,0.273,0.41,0.491,0.572,0.654c-2.398,2.835-4.797,5.479-7.195,7.932c-1.035,1.036-2.113,2.085-3.23,3.148
		c-1.117,1.063-2.248,2.044-3.393,2.943s-2.277,1.677-3.395,2.331c-1.117,0.653-2.166,1.145-3.146,1.472l-0.164,0.081
		c-0.164,0.056-0.449,0.097-0.859,0.123c-0.408,0.028-0.846,0.041-1.309,0.041s-0.887-0.013-1.268-0.041
		c-0.381-0.026-0.627-0.041-0.734-0.041c-1.582-0.436-2.605-1.402-3.066-2.902c-0.463-1.499-0.369-3.447,0.285-5.847
		c0.109-0.545,0.354-1.295,0.736-2.249c0.381-0.953,0.871-2.085,1.473-3.394c1.09-2.67,2.221-5.273,3.393-7.809
		c1.172-2.535,2.139-4.565,2.902-6.092c0.328-0.708,0.887-1.881,1.678-3.516c0.789-1.636,1.703-3.543,2.738-5.724
		c1.035-2.18,2.152-4.551,3.354-7.114c1.197-2.562,2.424-5.151,3.68-7.768c-1.092-0.272-1.895-0.491-2.412-0.654
		c-0.52-0.164-0.887-0.354-1.105-0.572c-0.162-0.217-0.285-0.599-0.367-1.145c-0.082-0.544-0.014-1.09,0.205-1.636
		c0.217-0.544,0.613-1.022,1.186-1.431c0.572-0.409,1.402-0.613,2.494-0.613c0.217,0.055,0.461,0.082,0.734,0.082h2.045
		c0.926-1.962,1.799-3.815,2.617-5.561c0.818-1.744,1.539-3.284,2.166-4.62c0.627-1.335,1.131-2.412,1.514-3.23
		c0.381-0.817,0.6-1.308,0.654-1.472c0.381-0.763,0.83-1.335,1.35-1.717c0.518-0.381,1.238-0.272,2.166,0.327
		c0.545,0.382,1.049,0.818,1.514,1.309c0.461,0.49,0.83,1.022,1.104,1.594c0.271,0.572,0.436,1.159,0.49,1.758
		c0.053,0.601-0.055,1.173-0.326,1.717c-0.219,0.437-0.547,1.132-0.982,2.085c-0.438,0.955-0.898,1.962-1.391,3.025
		c-0.49,1.063-0.98,2.099-1.471,3.107c-0.49,1.009-0.846,1.758-1.063,2.249c2.07,0.164,3.965,0.327,5.682,0.491
		S448.395,34.899,448.941,35.063z"/>
	<path fill="#443F41" d="M468.564,71.778c0.49,0.654,0.9,1.2,1.227,1.636c0.328,0.437,0.6,0.791,0.818,1.063
		c0.217,0.273,0.408,0.491,0.572,0.654c-2.836,3.435-5.59,6.488-8.26,9.158c-1.145,1.145-2.33,2.263-3.557,3.353
		c-1.227,1.091-2.453,2.059-3.68,2.903c-1.227,0.846-2.412,1.513-3.557,2.003s-2.209,0.736-3.189,0.736
		c-0.49,0-0.928-0.273-1.309-0.818c-0.381-0.544-0.709-1.227-0.98-2.044c-0.273-0.817-0.465-1.729-0.572-2.739
		c-0.111-1.008-0.082-1.976,0.082-2.903c0.053-0.327,0.107-0.653,0.162-0.98s0.137-0.708,0.246-1.146
		c-0.818,0.981-1.676,2.018-2.576,3.107c-0.898,1.092-1.785,2.113-2.658,3.066c-0.871,0.955-1.717,1.772-2.533,2.453
		c-0.818,0.683-1.582,1.104-2.291,1.268c-1.254,0.327-2.412,0.15-3.475-0.531s-1.922-1.689-2.576-3.025s-1.063-2.889-1.227-4.661
		c-0.164-1.771,0-3.61,0.49-5.52c0.492-1.907,1.172-4.061,2.045-6.46c0.871-2.398,1.922-4.796,3.148-7.196
		c1.227-2.398,2.617-4.647,4.17-6.746c1.555-2.098,3.258-3.803,5.111-5.111c1.744-1.198,3.42-1.812,5.029-1.84
		c1.607-0.027,3.051,0.232,4.334,0.777c1.279,0.545,2.355,1.173,3.229,1.881c0.871,0.709,1.443,1.173,1.717,1.39
		c0.328-0.544,0.627-1.022,0.9-1.431c0.271-0.409,0.518-0.777,0.736-1.104c0.217-0.327,0.436-0.654,0.654-0.981
		c0.816,0,1.635,0.11,2.453,0.327c0.654,0.164,1.334,0.45,2.043,0.859c0.709,0.409,1.281,0.968,1.719,1.676
		c-0.111,0.218-0.533,0.968-1.268,2.249c-0.736,1.282-1.637,2.862-2.699,4.743c-1.063,1.881-2.195,3.966-3.393,6.256
		c-1.201,2.29-2.318,4.512-3.354,6.664c-1.035,2.154-1.908,4.171-2.617,6.052c-0.709,1.88-1.063,3.339-1.063,4.374
		c0.055,0.11,0.408-0.054,1.063-0.49c0.654-0.436,1.473-1.022,2.453-1.759c0.982-0.735,2.072-1.607,3.271-2.616
		c1.199-1.008,2.385-2.016,3.557-3.025c1.172-1.008,2.25-2.003,3.23-2.984S467.965,72.487,468.564,71.778z M446.814,78.647
		c0.598-1.963,1.32-4.007,2.166-6.133c0.844-2.126,1.813-4.143,2.902-6.052c0.545-1.035,1.131-2.085,1.758-3.148
		s1.24-2.112,1.84-3.148c-1.035-1.308-2.057-2.071-3.066-2.29c-1.008-0.217-1.977-0.108-2.902,0.327
		c-0.928,0.437-1.785,1.077-2.576,1.922c-0.791,0.846-1.459,1.649-2.002,2.412c-0.982,1.308-1.91,2.78-2.781,4.416
		c-0.873,1.635-1.635,3.271-2.289,4.907c-0.654,1.635-1.215,3.244-1.676,4.824c-0.465,1.582-0.791,2.999-0.982,4.252
		c-0.191,1.255-0.244,2.263-0.164,3.025c0.082,0.764,0.314,1.173,0.695,1.227c0.328,0.055,0.832-0.136,1.514-0.572
		c0.682-0.436,1.443-0.981,2.289-1.636s1.73-1.376,2.658-2.166C445.123,80.024,445.996,79.301,446.814,78.647z"/>
	<path fill="#443F41" d="M493.178,34.654c-2.727,5.452-5.396,10.849-8.014,16.19c-1.145,2.29-2.318,4.675-3.516,7.155
		c-1.201,2.481-2.412,4.961-3.639,7.441c-1.227,2.481-2.4,4.92-3.518,7.319c-1.117,2.399-2.166,4.634-3.148,6.705
		c-0.436,1.199-0.764,1.99-0.98,2.371c-0.219,0.382-0.326,0.764-0.326,1.145c0,0.709,0.408,0.995,1.227,0.858
		c0.816-0.135,1.77-0.503,2.861-1.104c0.107-0.054,0.354-0.231,0.736-0.531c0.381-0.299,0.789-0.613,1.227-0.94
		c0.436-0.327,0.871-0.654,1.309-0.981c0.436-0.327,0.762-0.599,0.98-0.817c1.635-1.472,3.297-3.038,4.988-4.702
		c1.689-1.662,2.971-3.038,3.844-4.129c0.49,0.655,0.898,1.2,1.227,1.635c0.326,0.438,0.598,0.791,0.816,1.063
		c0.217,0.273,0.41,0.49,0.572,0.654c-2.398,2.835-4.797,5.479-7.195,7.932c-1.037,1.036-2.113,2.085-3.23,3.147
		c-1.117,1.063-2.248,2.045-3.393,2.944s-2.277,1.676-3.395,2.33s-2.166,1.146-3.148,1.472l-0.162,0.082
		c-0.164,0.055-0.451,0.096-0.859,0.123c-0.408,0.028-0.846,0.041-1.309,0.041s-0.887-0.013-1.268-0.041
		c-0.381-0.027-0.627-0.041-0.734-0.041c-1.582-0.436-2.605-1.403-3.066-2.903c-0.463-1.498-0.369-3.446,0.285-5.847
		c0.109-0.544,0.354-1.294,0.736-2.248c0.381-0.953,0.871-2.085,1.471-3.394c1.09-2.67,2.221-5.274,3.395-7.809
		c1.172-2.535,2.139-4.565,2.902-6.092c0.328-0.708,0.887-1.88,1.676-3.516c0.791-1.635,1.703-3.543,2.74-5.724
		c1.035-2.18,2.152-4.551,3.354-7.114c1.197-2.562,2.412-5.138,3.639-7.728c1.227-2.588,2.396-5.097,3.516-7.523
		c1.117-2.425,2.125-4.592,3.025-6.5c0.898-1.908,1.635-3.476,2.207-4.702s0.912-1.948,1.023-2.167
		c0.381-0.763,0.83-1.335,1.348-1.717c0.518-0.381,1.24-0.272,2.168,0.327c0.545,0.382,1.049,0.817,1.512,1.308
		s0.832,1.022,1.105,1.595c0.271,0.572,0.436,1.159,0.49,1.758c0.053,0.601-0.055,1.173-0.328,1.717
		c-0.273,0.491-0.668,1.295-1.186,2.412c-0.518,1.118-1.049,2.277-1.594,3.476c-0.545,1.2-1.051,2.29-1.514,3.271
		C493.572,33.836,493.285,34.437,493.178,34.654z"/>
</g>
</svg>
